<?xml version="1.0" standalone="no"?>
<!DOCTYPE svg PUBLIC "-//W3C//DTD SVG 20010904//EN"
 "http://www.w3.org/TR/2001/REC-SVG-20010904/DTD/svg10.dtd">
<svg version="1.0" xmlns="http://www.w3.org/2000/svg"
 width="227.000000pt" height="227.000000pt" viewBox="0 0 227.000000 227.000000"
 preserveAspectRatio="xMidYMid meet">
<metadata>
Created by potrace 1.11, written by Peter Selinger 2001-2013
</metadata>
<g transform="translate(0.000000,227.000000) scale(0.100000,-0.100000)"
fill="#000000" stroke="none">
<path d="M74 2197 c-2 -7 -3 -116 -2 -242 l3 -230 55 -5 55 -5 0 -580 0 -580
-55 -5 -55 -5 -3 -220 c-1 -121 0 -230 3 -243 l5 -22 373 2 372 3 3 243 2 242
-55 0 -55 0 0 263 0 262 31 -55 c16 -30 53 -98 81 -150 28 -52 76 -142 108
-200 31 -58 85 -158 119 -222 34 -65 65 -118 69 -118 4 0 37 57 74 128 38 70
87 163 111 207 100 186 173 323 197 370 l25 50 3 -255 c1 -140 0 -260 -3 -267
-3 -8 -23 -13 -55 -13 l-50 0 0 -245 0 -245 373 2 372 3 3 243 2 242 -55 0
-55 0 0 585 0 585 55 0 55 0 -2 243 -3 242 -301 3 c-234 2 -304 -1 -311 -10
-6 -7 -38 -67 -73 -133 -35 -66 -66 -124 -70 -130 -4 -5 -42 -77 -85 -160 -43
-82 -81 -154 -85 -160 -4 -5 -31 -55 -60 -110 -29 -55 -55 -103 -59 -107 -3
-4 -43 62 -87 145 -45 84 -137 256 -204 382 -68 127 -132 242 -142 258 l-19
27 -300 0 c-233 0 -301 -3 -305 -13z m624 -99 c11 -24 41 -79 64 -123 24 -44
74 -136 110 -205 37 -69 87 -163 112 -210 26 -47 67 -124 92 -173 38 -71 49
-85 60 -76 8 6 14 15 14 19 0 4 20 43 43 86 24 44 65 120 92 169 26 50 64 122
85 160 20 39 63 120 95 180 32 61 71 133 86 160 l28 50 275 3 276 2 0 -180 0
-180 -55 0 c-30 0 -55 -4 -55 -10 0 -5 0 -295 0 -642 l0 -633 55 -3 55 -3 -2
-182 -3 -182 -320 0 -320 0 -3 182 -2 182 52 3 53 3 3 398 c1 218 -1 397 -5
397 -5 0 -107 -196 -228 -435 -121 -239 -223 -435 -226 -435 -3 0 -43 71 -89
158 -46 86 -109 204 -140 262 -74 137 -164 307 -196 370 -14 27 -29 50 -35 50
-6 0 -8 -143 -7 -382 l3 -383 55 -5 55 -5 0 -173 c1 -154 -1 -175 -17 -183 -9
-5 -154 -9 -322 -9 l-306 0 0 184 0 185 53 3 52 3 0 640 0 640 -52 3 -53 3 0
180 0 179 273 0 273 0 22 -42z"/>
<path d="M184 2077 c-2 -7 -3 -65 -2 -128 l3 -114 53 -3 52 -3 -2 -697 -3
-697 -50 0 -50 0 -3 -128 -3 -127 273 2 273 3 3 122 3 123 -28 1 c-15 1 -35 2
-43 3 -8 2 -23 3 -32 4 -17 2 -18 34 -17 520 0 590 -9 551 90 363 30 -58 77
-146 104 -196 47 -88 77 -145 158 -295 22 -41 54 -102 72 -135 18 -33 45 -84
60 -114 22 -45 29 -51 40 -40 12 13 95 165 230 424 32 61 65 124 75 140 10 17
45 82 78 145 33 63 73 139 89 168 l28 53 3 -508 c1 -279 0 -514 -3 -521 -3
-10 -20 -13 -53 -10 l-47 3 -3 -128 -3 -127 276 0 276 0 -3 127 -3 128 -55 0
-55 0 -3 697 -2 697 57 3 58 3 0 125 0 125 -214 0 -214 0 -18 -31 c-31 -55
-265 -493 -453 -846 -22 -43 -45 -77 -49 -75 -8 2 -24 30 -142 252 -32 61 -81
153 -110 205 -29 52 -73 133 -97 180 -25 47 -67 126 -93 175 -27 50 -57 102
-67 118 l-19 27 -205 0 c-160 0 -206 -3 -210 -13z"/>
</g>
</svg>
